# xmcd
#
# Track frame offsets: 
#        150
#        17690
#        34031
#        50447
#        70404
#        92311
#        105535
#        126394
#        144524
#        158743
#        181889
#
# Disc length: 2781 seconds
#
# Revision: 0
# Processed by: cddbd v1.5.2PL0 Copyright (c) Steve Scherf et al.
# Submitted via: ExactAudioCopy v1.0b4
#
DISCID=8a0adb0b
DTITLE=The Blues Mystery - Diesel Rock
DYEAR=2015
DGENRE=Blues Rock
TTITLE0=Grimaces On The Bad Mood
TTITLE1=Don't Get Close To Me Today
TTITLE2=The Motorbikes Are Roaring
TTITLE3=Wild Love ( Tamed By The Child )
TTITLE4=Half A Man
TTITLE5=I'm Coming Back
TTITLE6=A Daughter Can Break Your Heart
TTITLE7=With Just One Look
TTITLE8=Son
TTITLE9=Diesel Rock
TTITLE10=Over The Mountains
EXTD=
EXTT0=
EXTT1=
EXTT2=
EXTT3=
EXTT4=
EXTT5=
EXTT6=
EXTT7=
EXTT8=
EXTT9=
EXTT10=
PLAYORDER=
